<svg width="619pt" height="619pt" version="1.1" viewBox="-19 -21 620 619" id="prefix__svg18" xmlns="http://www.w3.org/2000/svg"><defs id="prefix__defs22"><linearGradient id="prefix__linearGradient1253"><stop offset="0" id="prefix__stop1251" stop-color="#000" stop-opacity="1"/></linearGradient><style type="text/css" id="style2">.prefix__fil2{fill:#000;fill-rule:nonzero}</style></defs><path d="M290.708 188.673a17.609 17.609 0 00-17.609 17.609v118.953a17.609 17.609 0 0017.609 17.608 17.609 17.609 0 0017.608-17.608V206.282a17.609 17.609 0 00-17.608-17.609z" stroke-width=".78" id="prefix__path2"/><path d="M278.258 313.804c6.877-6.877 18.026-6.877 24.902 0l61.98 61.98c6.877 6.876 6.877 18.026 0 24.902-6.876 6.877-18.026 6.877-24.902 0l-61.98-61.98c-6.877-6.877-6.877-18.026 0-24.902z" stroke-width=".78" id="prefix__path4"/><g id="prefix__g14" transform="translate(-12.279 -12.967) scale(1.0418)"><path d="M235.4 8.2a15.609 15.609 0 00-15.608 15.609 15.609 15.609 0 0015.608 15.61h114.18a15.609 15.609 0 0015.61-15.61A15.609 15.609 0 00349.58 8.2z" stroke-width=".859" id="prefix__path8"/><path stroke-width=".753" id="prefix__rect10" d="M263.21 36.941h57.843v52.585H263.21z"/><path transform="rotate(-45)" stroke-width=".753" id="prefix__rect12" d="M211.47 412.72h57.843v52.585H211.47z"/><path id="prefix__path1841" d="M259.648 566.03A240.357 240.357 0 0152.252 324.645 240.357 240.357 0 01266.188 89.038a240.357 240.357 0 01260.215 183.214" fill="none" stroke="#000" stroke-width="26.92" stroke-linecap="round" stroke-miterlimit="4" stroke-dasharray="none" stroke-opacity="1"/></g><g id="prefix__g863" transform="matrix(64.68129 0 0 64.68129 -44.558 -43.507)" clip-rule="evenodd" fill-rule="evenodd" image-rendering="optimizeQuality" shape-rendering="geometricPrecision" text-rendering="geometricPrecision"><g id="prefix__Layer_x0020_1"><path id="prefix__rect6" fill="none" d="M0 0h11.32v11.32H0z"/><g id="prefix__g868" transform="translate(-5.994 4.674)"><path id="prefix__polygon8" transform="translate(7.796 -2.734)" fill="#444" fill-opacity="1" fill-rule="nonzero" d="M3.85 7.69l-.25-.32.27-.78.86.86z"/><path class="prefix__fil2" d="M15.166.786l.44.44.01.01c.09.09.13.21.13.32 0 .13-.05.25-.14.34l-2.95 2.95c-.02.03-.06.04-.09.05l-1.16.31c-.1.03-.2-.03-.23-.13a.139.139 0 010-.09l.32-1.17c0-.04.02-.06.04-.09l2.95-2.94.01-.02c.1-.08.21-.12.33-.12.12 0 .24.04.34.14zm.18.69l-.44-.43v-.01a.114.114 0 00-.08-.03.09.09 0 00-.07.03l-2.92 2.92-.22.82.82-.22 2.91-2.92c.02-.02.03-.05.03-.08 0-.02-.01-.05-.03-.07z" id="prefix__path10" fill="#000" fill-opacity="1"/><path class="prefix__fil2" id="prefix__polygon12" transform="translate(7.796 -2.734)" fill="#000" fill-opacity="1" d="M7.06 5.12l-.85-.86.26-.26.85.86z"/></g></g></g></svg>